<?xml version="1.0" encoding="utf-8"?>
<!-- Generator: Adobe Illustrator 16.0.0, SVG Export Plug-In . SVG Version: 6.00 Build 0)  -->
<!DOCTYPE svg PUBLIC "-//W3C//DTD SVG 1.1//EN" "http://www.w3.org/Graphics/SVG/1.1/DTD/svg11.dtd">
<svg version="1.1" id="Layer_1" xmlns="http://www.w3.org/2000/svg" xmlns:xlink="http://www.w3.org/1999/xlink" x="0px" y="0px"
	 width="500px" height="500px" viewBox="0 0 500 500" enable-background="new 0 0 500 500" xml:space="preserve">
<path fill="#FFFFFF" stroke="#4B662C" stroke-width="3.2938" d="M422.704,201.461c-1.392,0-2.746,0.097-4.115,0.174
	c3.392,14.014,5.224,28.68,5.224,43.783c0,4.685-0.239,9.304-0.575,13.903h15.736c7.994,0,14.467,6.469,14.467,14.462
	c0,7.979-6.473,14.471-14.467,14.471h-20.19c-2.921,12.345-7.039,24.213-12.294,35.41c1.837,3.746,3.222,7.605,4.146,11.535
	c3.932,0.664,7.946,1.09,12.068,1.09c38.187,0,69.136-30.181,69.136-67.41C491.84,231.646,460.891,201.461,422.704,201.461z"/>
<path fill="#FFFFFF" stroke="#4B662C" stroke-width="3.2938" d="M61.442,288.254c-7.989,0-14.461-6.491-14.461-14.471
	c0-7.993,6.473-14.462,14.461-14.462h15.424c-0.34-4.6-0.569-9.218-0.569-13.903c0-15.117,1.826-29.79,5.229-43.816
	c-1.091-0.053-2.174-0.14-3.281-0.14c-38.186,0-69.136,30.184-69.136,67.417c0,37.229,30.951,67.41,69.136,67.41
	c4.12,0,8.128-0.426,12.04-1.086c0.855-3.64,2.109-7.209,3.75-10.693c-5.443-11.461-9.715-23.604-12.717-36.256H61.442z"/>
<path fill="#FFFFFF" stroke="#4B662C" stroke-width="3.2938" d="M419.503,338.87c-0.977-4.148-2.439-8.22-4.379-12.173
	c-7.096-14.493-20.399-27.597-38.285-38.4c9.873-12.779,15.803-28.758,15.803-46.153c0-10.255-2.069-20.02-5.755-28.942
	c-11.363-27.442-38.398-46.763-69.952-46.763c-29.024,0-54.202,16.342-66.909,40.314c-12.699-23.973-37.878-40.314-66.896-40.314
	c-31.369,0-58.275,19.071-69.762,46.254c-3.828,9.051-5.946,19.003-5.946,29.45c0,17.56,6.035,33.694,16.084,46.537
	c-17.946,10.951-31.238,24.225-38.13,38.908c-1.732,3.677-3.057,7.444-3.956,11.285c-0.92,3.925-1.4,7.92-1.4,11.964
	c0,51.479,76.318,93.203,170.456,93.203c94.143,0,170.449-41.725,170.449-93.203C420.925,346.785,420.429,342.789,419.503,338.87z"
	/>
<path fill="#4B662C" stroke="#4B662C" stroke-width="1.0799" d="M290.252,269.944c0,16.668,6.576,30.167,14.685,30.167
	c8.114,0,14.684-13.499,14.684-30.167c0-16.65-6.569-30.155-14.684-30.155C296.828,239.79,290.252,253.294,290.252,269.944z"/>
<path fill="#4B662C" stroke="#4B662C" stroke-width="1.0799" d="M210.133,269.944c0,16.668-6.572,30.167-14.686,30.167
	c-8.11,0-14.673-13.499-14.673-30.167c0-16.65,6.563-30.155,14.673-30.155C203.561,239.79,210.133,253.294,210.133,269.944z"/>
<path fill="#4B662C" stroke="#4B662C" stroke-width="1.0133" d="M267.672,311.208c0,7.02-7.822,12.716-17.473,12.716
	c-9.647,0-17.482-5.696-17.482-12.716s7.835-12.706,17.482-12.706C259.85,298.502,267.672,304.188,267.672,311.208z"/>
<path fill="#FFFFFF" stroke="#231F20" stroke-width="1.14" d="M392.642,242.144c0-2.581-0.133-5.122-0.387-7.633
	C392.505,237.021,392.642,239.563,392.642,242.144z"/>
<path fill="none" stroke="#231F20" stroke-width="1.14" d="M107.812,234.408c-0.26,2.54-0.39,5.118-0.39,7.735
	C107.422,239.526,107.552,236.948,107.812,234.408z"/>
<path fill="#4B662C" stroke="#4B662C" stroke-width="3.2938" d="M449.407,258.793h-16.604c0.351-4.855,0.601-9.729,0.601-14.673
	c0-15.94-1.929-31.418-5.506-46.208c-19.959-82.34-92.012-143.326-177.872-143.326c-85.833,0-157.878,60.978-177.85,143.291
	c-3.594,14.803-5.52,30.288-5.52,46.243c0,4.944,0.242,9.817,0.603,14.673h-16.28c-8.43,0-15.262,6.825-15.262,15.262
	c0,8.42,6.832,15.271,15.262,15.271h20.977c3.169,13.354,7.676,26.168,13.421,38.263c6.893-14.684,20.185-27.957,38.13-38.908
	c-10.049-12.843-16.084-28.978-16.084-46.537c0-2.617,0.13-5.196,0.39-7.735c0.775-7.631,2.688-14.928,5.556-21.715
	c11.486-27.179,38.393-46.254,69.762-46.254c29.018,0,54.197,16.342,66.896,40.314c12.707-23.973,37.885-40.314,66.909-40.314
	c31.628,0,58.697,19.416,70.02,46.956c1.806,4.399,3.232,8.997,4.189,13.761c0.052,0.26,0.074,0.526,0.123,0.783
	c0.41,2.164,0.761,4.348,0.988,6.571c0.254,2.511,0.387,5.052,0.387,7.633c0,17.396-5.93,33.374-15.803,46.153
	c17.886,10.804,31.189,23.907,38.285,38.4c5.547-11.816,9.894-24.342,12.979-37.371h21.305c8.439,0,15.27-6.852,15.27-15.271
	C464.677,265.618,457.847,258.793,449.407,258.793z"/>
<path fill="none" stroke="#231F20" stroke-width="1.1811" d="M278.735,434.342"/>
<g>
	<g>
		<path fill="#4B662C" d="M142.646,390.563c21.251-8.599,44.612-13.217,67.22-16.257c50.198-6.749,102.047-1.761,148.822,18.244
			c1.544,0.66,2.434-1.78,0.9-2.436c-46.884-20.051-98.485-24.893-148.805-18.543c-23.278,2.937-47.395,7.802-69.252,16.646
			C139.98,388.845,141.099,391.188,142.646,390.563L142.646,390.563z"/>
	</g>
</g>
<path fill="none" stroke="#231F20" stroke-width="1.1811" d="M278.735,434.342"/>
</svg>
